<?xml version="1.0" encoding="UTF-8"?>
<svg id="Capa_2" data-name="Capa 2" xmlns="http://www.w3.org/2000/svg" xmlns:xlink="http://www.w3.org/1999/xlink" viewBox="0 0 653.7 192.48">
  <defs>
    <style>
      .cls-1 {
        opacity: .05;
      }

      .cls-2 {
        fill: #ffd487;
      }

      .cls-3, .cls-4 {
        fill: none;
      }

      .cls-5 {
        fill: #4b3f51;
      }

      .cls-4 {
        stroke: #2e2034;
        stroke-miterlimit: 10;
      }

      .cls-6 {
        fill: #f8f6cd;
      }

      .cls-7 {
        fill: #241c28;
      }

      .cls-8 {
        clip-path: url(#clippath);
      }
    </style>
    <clipPath id="clippath">
      <rect class="cls-3" width="653.7" height="182.31" rx="20" ry="20"/>
    </clipPath>
  </defs>
  <g id="Capa_1-2" data-name="Capa 1">
    <g>
      <rect class="cls-7" y="10.17" width="653.7" height="182.31" rx="20" ry="20"/>
      <rect class="cls-2" width="653.7" height="182.31" rx="20" ry="20"/>
      <g class="cls-1">
        <g class="cls-8">
          <g>
            <path class="cls-4" d="M71.27-14.95v213.96"/>
            <path class="cls-4" d="M93.74-14.95v213.96"/>
            <path class="cls-4" d="M116.21-14.95v213.96"/>
            <path class="cls-4" d="M138.67-14.95v213.96"/>
            <path class="cls-4" d="M161.14-14.95v213.96"/>
            <path class="cls-4" d="M183.61-14.95v213.96"/>
            <path class="cls-4" d="M206.08-14.95v213.96"/>
            <path class="cls-4" d="M228.55-14.95v213.96"/>
            <path class="cls-4" d="M251.02-14.95v213.96"/>
            <path class="cls-4" d="M273.48-14.95v213.96"/>
            <path class="cls-4" d="M295.95-14.95v213.96"/>
            <path class="cls-4" d="M318.42-14.95v213.96"/>
            <path class="cls-4" d="M340.89-14.95v213.96"/>
            <path class="cls-4" d="M363.36-14.95v213.96"/>
            <path class="cls-4" d="M385.82-14.95v213.96"/>
            <path class="cls-4" d="M408.29-14.95v213.96"/>
            <path class="cls-4" d="M430.76-14.95v213.96"/>
            <path class="cls-4" d="M453.23-14.95v213.96"/>
            <path class="cls-4" d="M475.7-14.95v213.96"/>
            <path class="cls-4" d="M498.16-14.95v213.96"/>
            <path class="cls-4" d="M520.63-14.95v213.96"/>
            <path class="cls-4" d="M543.1-14.95v213.96"/>
            <path class="cls-4" d="M565.57-14.95v213.96"/>
            <path class="cls-4" d="M588.04-14.95v213.96"/>
            <path class="cls-4" d="M610.51-14.95v213.96"/>
            <path class="cls-4" d="M632.97-14.95v213.96"/>
          </g>
          <g>
            <path class="cls-4" d="M2.72,16.45h698.81"/>
            <path class="cls-4" d="M2.72,35.35h698.81"/>
            <path class="cls-4" d="M2.72,54.24h698.81"/>
            <path class="cls-4" d="M2.72,73.13h698.81"/>
            <path class="cls-4" d="M2.72,92.03h698.81"/>
            <path class="cls-4" d="M2.72,110.92h698.81"/>
            <path class="cls-4" d="M2.72,129.81h698.81"/>
            <path class="cls-4" d="M2.72,148.71h698.81"/>
            <path class="cls-4" d="M2.72,167.6h698.81"/>
          </g>
        </g>
      </g>
      <path class="cls-6" d="M55.75,0v182.31H20c-11.05,0-20-8.96-20-20V20C0,8.95,8.95,0,20,0h35.75Z"/>
      <rect class="cls-5" x="47.57" width="8.18" height="182.31"/>
    </g>
  </g>
</svg>