<?xml version="1.0" encoding="UTF-8"?>
<svg id="Capa_2" xmlns="http://www.w3.org/2000/svg" version="1.1" xmlns:xlink="http://www.w3.org/1999/xlink" viewBox="0 0 229 175">
  <!-- Generator: Adobe Illustrator 30.0.0, SVG Export Plug-In . SVG Version: 2.1.1 Build 123)  -->
  <defs>
    <style>
      .st0, .st1 {
        fill: none;
      }

      .st2 {
        clip-path: url(#clippath-1);
      }

      .st1 {
        stroke: #2e2034;
        stroke-miterlimit: 10;
      }

      .st3 {
        fill: #f8f6cd;
      }

      .st4 {
        opacity: 0;
      }

      .st5 {
        fill: #ffd487;
        isolation: isolate;
      }
    </style>
    <clipPath id="clippath">
      <path class="st0" d="M226.4,22v130.6c0,11-8.9,20-20,20H22c-11,0-20-9-20-20V22c0-1.7.2-3.3.6-4.9C4.8,8.4,12.6,2,22,2h184.4c9.4,0,17.2,6.4,19.4,15.1.4,1.6.6,3.2.6,4.9Z"/>
    </clipPath>
    <clipPath id="clippath-1">
      <path class="st0" d="M226.4,22v130.6c0,11-8.9,20-20,20H22c-11,0-20-9-20-20V22c0-1.7.2-3.3.6-4.9C4.8,8.4,12.6,2,22,2h184.4c9.4,0,17.2,6.4,19.4,15.1.4,1.6.6,3.2.6,4.9Z"/>
    </clipPath>
  </defs>
  <path class="st5" d="M226.4,22v130.6c0,11-8.9,20-20,20H22c-11,0-20-9-20-20V22c0-1.7.2-3.3.6-4.9C4.8,8.4,12.6,2,22,2h184.4c9.4,0,17.2,6.4,19.4,15.1.4,1.6.6,3.2.6,4.9Z"/>
  <g id="Capa_1-2">
    <g>
      <g class="st4">
        <g class="st2">
          <g>
            <g>
              <path class="st1" d="M13.1-19.7v214"/>
              <path class="st1" d="M35.5-19.7v214"/>
              <path class="st1" d="M58-19.7v214"/>
              <path class="st1" d="M80.5-19.7v214"/>
              <path class="st1" d="M102.9-19.7v214"/>
              <path class="st1" d="M125.4-19.7v214"/>
              <path class="st1" d="M147.9-19.7v214"/>
              <path class="st1" d="M170.4-19.7v214"/>
              <path class="st1" d="M192.8-19.7v214"/>
              <path class="st1" d="M215.3-19.7v214"/>
            </g>
            <g>
              <path class="st1" d="M-235.2,11.7H463.6"/>
              <path class="st1" d="M-235.2,30.6H463.6"/>
              <path class="st1" d="M-235.2,49.5H463.6"/>
              <path class="st1" d="M-235.2,68.4H463.6"/>
              <path class="st1" d="M-235.2,87.3H463.6"/>
              <path class="st1" d="M-235.2,106.2H463.6"/>
              <path class="st1" d="M-235.2,125.1H463.6"/>
              <path class="st1" d="M-235.2,144H463.6"/>
              <path class="st1" d="M-235.2,162.9H463.6"/>
            </g>
          </g>
        </g>
      </g>
      <path class="st3" d="M226.4,22v3.3H2v-3.3c0-1.7.2-3.3.6-4.9C4.8,8.4,12.6,2,22,2h184.4c9.4,0,17.2,6.4,19.4,15.1.4,1.6.6,3.2.6,4.9Z"/>
    </g>
  </g>
</svg>