<?xml version="1.0" encoding="UTF-8"?>
<svg id="Capa_2" data-name="Capa 2" xmlns="http://www.w3.org/2000/svg" viewBox="0 0 69.03 69.03">
  <defs>
    <style>
      .cls-1 {
        fill: #ffd487;
      }

      .cls-2 {
        fill: #3c2d44;
        stroke: #f8f6cd;
        stroke-miterlimit: 10;
        stroke-width: 5px;
      }
    </style>
  </defs>
  <g id="Capa_1-2" data-name="Capa 1">
    <g>
      <path class="cls-2" d="M4.44,4.73c-.06.08-.59,1.07-.66,1.23-.75,1.69-.94,3.57-1.02,6.06-.42,13.6-.27,27.44,0,41.04.06,3.12-.17,6.4.64,9.05.88,2.87,2.49,3.48,3.78,3.92,2.36.82,5.22.39,7.68.42,9.46.15,18.86-.84,28.38-.2,5.06.34,10.23.03,15.33-.02,1.69-.02,3.21.55,4.89-.78,1.64-1.31,2.7-3.55,2.82-8.19.37-13.65.25-27.22,0-40.82-.09-4.65.26-9.25-1.71-11.78-2.12-2.72-5.9-2.08-8.28-2.11-4.54-.05-9.04.14-13.52.45-6.22.44-12.31,0-18.54-.42-3.57-.24-7.21.12-10.84.17-2.66.04-6.55-1.16-8.97,1.98Z"/>
      <g>
        <path class="cls-1" d="M28.9,24.34s.2-.33.23-.37c.32-.41.67-.52,1.14-.56,2.56-.23,5.17-.15,7.74,0,.59.03,1.21-.1,1.71.35.54.49.66,1.38.74,2.09.15,1.31.07,2.89.08,4.26.03,5.24-.16,10.45-.04,15.72.06,2.8,0,5.66,0,8.49,0,.94.1,1.78-.15,2.71s-.67,1.49-1.54,1.56c-2.57.21-5.13.14-7.7,0-.88-.05-1.74.14-2.22-.95-.51-1.17-.39-3.27-.4-4.59-.01-2.51.03-5.01.09-7.49.08-3.45,0-6.82-.08-10.27-.05-1.98.02-3.99.03-6,0-1.47-.22-3.63.37-4.97Z"/>
        <path class="cls-1" d="M29.86,10.6s.17-.09.19-.1c.26-.12.56-.15.95-.16,2.12-.07,4.29-.04,6.41,0,.49,0,1-.03,1.41.1.45.14.54.39.61.59.13.37.06.82.07,1.2.02,1.48-.13,2.95-.03,4.43.05.79,0,1.6,0,2.39,0,.26.09.5-.12.76s-.55.42-1.28.44c-2.13.06-4.25.04-6.38,0-.73-.01-1.44.04-1.84-.27-.43-.33-.33-.92-.33-1.29,0-.71.02-1.41.07-2.11.07-.97,0-1.92-.07-2.89-.04-.56.02-1.13.03-1.69,0-.42-.18-1.02.31-1.4Z"/>
      </g>
    </g>
  </g>
</svg>