<?xml version="1.0" encoding="UTF-8"?>
<svg id="Capa_2" data-name="Capa 2" xmlns="http://www.w3.org/2000/svg" viewBox="0 0 69.03 69.03">
  <defs>
    <style>
      .cls-1 {
        fill: #ffd487;
      }

      .cls-2 {
        fill: #3c2d44;
        stroke: #f8f6cd;
        stroke-miterlimit: 10;
        stroke-width: 5px;
      }
    </style>
  </defs>
  <g id="Capa_1-2" data-name="Capa 1">
    <g>
      <path class="cls-2" d="M64.59,4.73c.06.08.59,1.07.66,1.23.75,1.69.94,3.57,1.02,6.06.42,13.6.27,27.44,0,41.04-.06,3.12.17,6.4-.64,9.05-.88,2.87-2.49,3.48-3.78,3.92-2.36.82-5.22.39-7.68.42-9.46.15-18.86-.84-28.38-.2-5.06.34-10.23.03-15.33-.02-1.69-.02-3.21.55-4.89-.78s-2.7-3.55-2.82-8.19c-.37-13.65-.25-27.22,0-40.82.09-4.65-.26-9.25,1.71-11.78,2.12-2.72,5.9-2.08,8.28-2.11,4.54-.05,9.04.14,13.52.45,6.22.44,12.31,0,18.54-.42,3.57-.24,7.21.12,10.84.17,2.66.04,6.55-1.16,8.97,1.98Z"/>
      <g>
        <path class="cls-1" d="M48.23,12.87s.49-.2.55-.22c.66-.21,1.03-.08,1.4.21,2.06,1.56,3.82,3.5,5.47,5.47.38.45.96.75.83,1.58-.14.9-1,1.93-1.7,2.74-1.28,1.5-3.02,3.12-4.46,4.57-5.54,5.58-11.2,10.98-16.71,16.65-2.93,3.02-6.01,6.01-9.02,9.01-.99.99-1.81,1.96-2.98,2.77-1.14.79-2.06,1.11-2.75.57-2.04-1.6-3.78-3.48-5.44-5.44-.57-.67-1.39-1.08-.57-2.57.88-1.61,3.19-3.75,4.58-5.15,2.66-2.68,5.33-5.3,8-7.88,3.72-3.6,7.24-7.24,10.84-10.95,2.07-2.13,4.25-4.22,6.39-6.35,1.57-1.56,3.7-4.01,5.54-5.01Z"/>
        <path class="cls-1" d="M20.8,12.87s-.49-.2-.55-.22c-.66-.21-1.03-.08-1.4.21-2.06,1.56-3.82,3.5-5.47,5.47-.38.45-.96.75-.83,1.58.14.9,1,1.93,1.7,2.74,1.28,1.5,3.02,3.12,4.46,4.57,5.54,5.58,11.2,10.98,16.71,16.65,2.93,3.02,6.01,6.01,9.02,9.01.99.99,1.81,1.96,2.98,2.77,1.14.79,2.06,1.11,2.75.57,2.04-1.6,3.78-3.48,5.44-5.44.57-.67,1.39-1.08.57-2.57-.88-1.61-3.19-3.75-4.58-5.15-2.66-2.68-5.33-5.3-8-7.88-3.72-3.6-7.24-7.24-10.84-10.95-2.07-2.13-4.25-4.22-6.39-6.35-1.57-1.56-3.7-4.01-5.54-5.01Z"/>
      </g>
    </g>
  </g>
</svg>