<?xml version="1.0" encoding="UTF-8"?>
<svg id="Capa_2" data-name="Capa 2" xmlns="http://www.w3.org/2000/svg" viewBox="0 0 69.03 69.03">
  <defs>
    <style>
      .cls-1 {
        fill: #ffd487;
        stroke: #f8f6cd;
        stroke-miterlimit: 10;
        stroke-width: 5px;
      }

      .cls-2 {
        fill: #3c2d44;
      }
    </style>
  </defs>
  <g id="Capa_1-2" data-name="Capa 1">
    <g>
      <path class="cls-1" d="M64.59,4.73c.06.08.59,1.07.66,1.23.75,1.69.94,3.57,1.02,6.06.42,13.6.27,27.44,0,41.04-.06,3.12.17,6.4-.64,9.05-.88,2.87-2.49,3.48-3.78,3.92-2.36.82-5.22.39-7.68.42-9.46.15-18.86-.84-28.38-.2-5.06.34-10.23.03-15.33-.02-1.69-.02-3.21.55-4.89-.78-1.64-1.31-2.7-3.55-2.82-8.19-.37-13.65-.25-27.22,0-40.82.09-4.65-.26-9.25,1.71-11.78,2.12-2.72,5.9-2.08,8.28-2.11,4.54-.05,9.04.14,13.52.45,6.22.44,12.31,0,18.54-.42,3.57-.24,7.21.12,10.84.17,2.66.04,6.55-1.16,8.97,1.98Z"/>
      <g>
        <path class="cls-2" d="M59.51,13.22s.49.2.55.23c.62.32.78.67.84,1.14.35,2.56.23,5.17,0,7.74-.05.59.15,1.21-.53,1.71-.73.54-2.07.66-3.14.74-1.96.15-4.34.07-6.39.08-7.86.03-15.68-.16-23.59-.04-4.21.06-8.5,0-12.75,0-1.4,0-2.67.1-4.06-.15s-2.24-.67-2.35-1.54c-.31-2.57-.21-5.13,0-7.7.07-.88-.22-1.74,1.42-2.22,1.76-.51,4.9-.39,6.88-.4,3.77-.01,7.52.03,11.23.09,5.17.08,10.24,0,15.41-.08,2.97-.05,5.99.02,9.01.03,2.21,0,5.45-.22,7.46.37Z"/>
        <path class="cls-2" d="M59.51,28.9s.49.2.55.23c.62.32.78.67.84,1.14.35,2.56.23,5.17,0,7.74-.05.59.15,1.21-.53,1.71-.73.54-2.07.66-3.14.74-1.96.15-4.34.07-6.39.08-7.86.03-15.68-.16-23.59-.04-4.21.06-8.5,0-12.75,0-1.4,0-2.67.1-4.06-.15s-2.24-.67-2.35-1.54c-.31-2.57-.21-5.13,0-7.7.07-.88-.22-1.74,1.42-2.22,1.76-.51,4.9-.39,6.88-.4,3.77-.01,7.52.03,11.23.09,5.17.08,10.24,0,15.41-.08,2.97-.05,5.99.02,9.01.03,2.21,0,5.45-.22,7.46.37Z"/>
        <path class="cls-2" d="M59.51,44.58s.49.2.55.23c.62.32.78.67.84,1.14.35,2.56.23,5.17,0,7.74-.05.59.15,1.21-.53,1.71-.73.54-2.07.66-3.14.74-1.96.15-4.34.07-6.39.08-7.86.03-15.68-.16-23.59-.04-4.21.06-8.5,0-12.75,0-1.4,0-2.67.1-4.06-.15s-2.24-.67-2.35-1.54c-.31-2.57-.21-5.13,0-7.7.07-.88-.22-1.74,1.42-2.22,1.76-.51,4.9-.39,6.88-.4,3.77-.01,7.52.03,11.23.09,5.17.08,10.24,0,15.41-.08,2.97-.05,5.99.02,9.01.03,2.21,0,5.45-.22,7.46.37Z"/>
      </g>
    </g>
  </g>
</svg>