<?xml version="1.0" encoding="UTF-8"?>
<svg id="Capa_2" xmlns="http://www.w3.org/2000/svg" version="1.1" viewBox="0 0 69 74.9">
  <!-- Generator: Adobe Illustrator 30.0.0, SVG Export Plug-In . SVG Version: 2.1.1 Build 123)  -->
  <defs>
    <style>
      .st0 {
        fill: #963;
      }

      .st1 {
        fill: #ffd487;
        stroke: #f8f6cd;
        stroke-linejoin: round;
        stroke-width: 5px;
      }

      .st2 {
        fill: #3c2d44;
      }
    </style>
  </defs>
  <path class="st0" d="M67,13.1s.6,1.1.7,1.2c.8,1.7,1,3.6,1.1,6.1.4,13.6.3,27.4,0,41,0,3.1.2,6.4-.7,9.1-.9,2.9-2.7,3.5-4.1,3.9-2.5.8-5.6.4-8.3.4-10.2.2-20.3-.8-30.6-.2-5.5.3-11,0-16.5,0s-3.5.6-5.3-.8-2.9-3.6-3-8.2c-.4-13.6-.3-27.2,0-40.8,0-4.6-.3-9.2,1.8-11.8,2.3-2.7,6.4-2.1,8.9-2.1,4.9,0,9.8.1,14.6.4,6.7.4,13.3,0,20-.4,3.8-.2,7.8.1,11.7.2,2.9,0,7.1-1.2,9.7,2Z"/>
  <path class="st1" d="M64.6,4.7s.6,1.1.7,1.2c.8,1.7.9,3.6,1,6.1.4,13.6.3,27.4,0,41,0,3.1.2,6.4-.6,9-.9,2.9-2.5,3.5-3.8,3.9-2.4.8-5.2.4-7.7.4-9.5.2-18.9-.8-28.4-.2-5.1.3-10.2,0-15.3,0s-3.2.6-4.9-.8-2.7-3.5-2.8-8.2c-.4-13.6-.2-27.2,0-40.8,0-4.6-.3-9.2,1.7-11.8,2.1-2.7,5.9-2.1,8.3-2.1,4.5,0,9,0,13.5.5,6.2.4,12.3,0,18.5-.4,3.6-.2,7.2,0,10.8.2,2.7,0,6.5-1.2,9,2h0Z"/>
  <g>
    <path class="st2" d="M30,48.9c-1,0-2,0-2.9.3-4.1.5-8.7,1.3-12.8,1.5s-4.2-1.2-4.8-3.5c-.3-11.4,0-22.8-.1-34.1.2-2.4,1.3-4.1,3.8-4.6,7.5.6,15,1.6,22.5,2.5,1.5.4,2.9,1.9,3.1,3.5.2,1.6,0,2.8,0,4.1l16.9,2c2.5.5,3.7,2.2,3.8,4.7.3,7.2.7,10.7,0,27.8,0,.7,0,2.4-1.3,3.7-1.1,1.1-2.6,1.3-3.2,1.3-3.3.4-10.9,1.2-21.1,2.3-1.4,0-3.7-2-3.7-3.4,0-2.7-.1-5.4-.2-8.1ZM13.1,10.4c-1.2.2-1.9,1.6-1.9,2.8.1,11.2-.2,22.5.2,33.8.3,1,1.1,1.6,2.1,1.8,6.8-.9,13.7-1.3,20.4-2.3,1.3-.2,2.3-.4,2.8-1.8V14.9c0-1.4-1.1-2-2.4-2.2-6.5-1.1-13.3-1.2-19.8-2.3h-1.4ZM38.7,20.8v24.1c0,.4-.8,1.7-1.1,2-1.5,1.7-3.6,1.3-5.6,1.8v8c0,.8,1.1,1.7,1.9,1.9,7.4-.7,14.9-1.5,22.3-2.6,1-.6,1.3-1.4,1.4-2.6-.4-9.1.6-18.8,0-27.8,0-1.4-.5-2.4-1.9-2.9l-16.6-2-.3.2h-.1Z"/>
    <path class="st2" d="M47.8,11.2h9c.2,0,.6.6.6.9s-.5,1-.8,1h-8.8c.3.6,2.1,1.9,2.3,2.4.3,1-.7,1.7-1.5,1.1s-3.4-3.2-3.8-3.8-.2-1,.2-1.6c.7-.8,2.4-2.6,3.2-3.2s1-.8,1.6-.2c1.2,1.1-1.5,2.6-2,3.5h0Z"/>
    <path class="st2" d="M20.7,57.6h-8.8c-.5,0-.9-1.1-.5-1.6s.6-.4.6-.4h8.7c-.5-.9-3.1-2.3-1.9-3.4s.9-.3,1.3,0,3.2,3.1,3.7,3.7.4.9,0,1.4-3,3.2-3.7,3.7-.9.5-1.3,0c-1.2-1.2,1.6-2.4,1.9-3.4Z"/>
    <path class="st2" d="M27.5,32.6h-6.9l-2,4.9c-.8,1.1-2.1.3-1.7-1,2.3-4.8,3.8-10.3,6.2-15,.6-1.3,1.5-1.3,2.1,0,2.4,4.8,3.9,10.5,6.2,15.4.3,1.1-.9,1.9-1.7.9l-2.2-5.3h0ZM26.6,30.7l-2.6-6.5-2.7,6.5h5.3Z"/>
    <path class="st2" d="M49,34.9c.2.2,4,0,4.7,0s.9.8.7,1.3c-.3.8-1.2.6-1.9.6-.5,2.1-1.7,3.9-2.9,5.7,0,.2,1.1,1.1,1.3,1.3.5.4,2,1.2,2,1.8,0,1-.5,1.4-1.4,1s-3.1-2.7-3.3-2.7c-.8.7-1.6,1.6-2.5,2.2s-1.1.8-1.5.8c-.7,0-1.1-.8-.8-1.5s1.9-1.4,2.2-1.7l1.3-1.3c-1.4-1.6-2.5-3.6-3.1-5.7-.8,0-2.5,0-2.3-1.1s.4-.8.6-.8h4.9v-2.7c0-.3.7-.7,1-.7s.9.6.9.8v2.6h0ZM50.4,36.8h-4.6c0,.6,2.1,4.2,2.3,4.2.5-.4,2.5-4,2.2-4.2h0Z"/>
  </g>
</svg>