<?xml version="1.0" encoding="UTF-8"?>
<svg id="Capa_2" xmlns="http://www.w3.org/2000/svg" version="1.1" viewBox="0 0 69 69.1">
  <!-- Generator: Adobe Illustrator 30.0.0, SVG Export Plug-In . SVG Version: 2.1.1 Build 123)  -->
  <defs>
    <style>
      .st0 {
        fill: #ffd487;
        stroke: #f8f6cd;
        stroke-linejoin: round;
        stroke-width: 5px;
      }

      .st1 {
        fill: #3c2d44;
      }
    </style>
  </defs>
  <path class="st0" d="M64.5,4.9s.6,1.1.7,1.2c.8,1.7.9,3.6,1,6.1.4,13.6.3,27.4,0,41,0,3.1.2,6.4-.6,9-.9,2.9-2.5,3.5-3.8,3.9-2.4.8-5.2.4-7.7.4-9.5.2-18.9-.8-28.4-.2-5.1.3-10.2,0-15.3,0s-3.2.6-4.9-.8-2.7-3.5-2.8-8.2c-.4-13.6-.2-27.2,0-40.8,0-4.6-.3-9.2,1.7-11.8,2.1-2.7,5.9-2.1,8.3-2.1,4.5,0,9,0,13.5.5,6.2.4,12.3,0,18.5-.4,3.6-.2,7.2,0,10.8.2,2.7,0,6.5-1.2,9,2h0Z"/>
  <path class="st1" d="M40,25.8c0-2.8-2.1-4.4-5.7-4.4s-6.4,1.4-9.3,4.3l-5.7-6.2c3.6-3.9,8.4-6.7,15.1-6.7s14.9,4.6,14.9,12.8-5.4,11.1-12.2,12.5l-.7,3.8h-6.3l-1.4-10,.3-.3c7.8-.3,10.8-2.3,10.8-5.7h.2ZM28.3,56.4v-9.9h10v9.9s-10,0-10,0Z"/>
</svg>