<?xml version="1.0" encoding="UTF-8"?>
<svg id="Capa_2" data-name="Capa 2" xmlns="http://www.w3.org/2000/svg" viewBox="0 0 69.03 69.03">
  <defs>
    <style>
      .cls-1 {
        fill: #ffd487;
        stroke: #f8f6cd;
        stroke-miterlimit: 10;
        stroke-width: 5px;
      }

      .cls-2 {
        fill: #3c2d44;
      }
    </style>
  </defs>
  <g id="Capa_1-2" data-name="Capa 1">
    <g>
      <path class="cls-1" d="M4.44,4.73c-.06.08-.59,1.07-.66,1.23-.75,1.69-.94,3.57-1.02,6.06-.42,13.6-.27,27.44,0,41.04.06,3.12-.17,6.4.64,9.05.88,2.87,2.49,3.48,3.78,3.92,2.36.82,5.22.39,7.68.42,9.46.15,18.86-.84,28.38-.2,5.06.34,10.23.03,15.33-.02,1.69-.02,3.21.55,4.89-.78,1.64-1.31,2.7-3.55,2.82-8.19.37-13.65.25-27.22,0-40.82-.09-4.65.26-9.25-1.71-11.78-2.12-2.72-5.9-2.08-8.28-2.11-4.54-.05-9.04.14-13.52.45-6.22.44-12.31,0-18.54-.42-3.57-.24-7.21.12-10.84.17-2.66.04-6.55-1.16-8.97,1.98Z"/>
      <path class="cls-2" d="M32.11,12.63l18.93,18.93c1.63,1.63,1.63,4.27,0,5.9l-18.93,18.93c-2.63,2.63-7.12.77-7.12-2.95,0-12.62,0-25.25,0-37.87,0-3.72,4.49-5.58,7.12-2.95Z"/>
    </g>
  </g>
</svg>